<?xml version="1.0" encoding="utf-8"?>
<!-- Generator: Adobe Illustrator 16.0.0, SVG Export Plug-In . SVG Version: 6.00 Build 0)  -->
<!DOCTYPE svg PUBLIC "-//W3C//DTD SVG 1.1//EN" "http://www.w3.org/Graphics/SVG/1.1/DTD/svg11.dtd">
<svg version="1.1" id="Capa_1" xmlns="http://www.w3.org/2000/svg" xmlns:xlink="http://www.w3.org/1999/xlink" x="0px" y="0px"
	 width="141.732px" height="141.732px" viewBox="0 0 141.732 141.732" enable-background="new 0 0 141.732 141.732"
	 xml:space="preserve">
<g>
	<path d="M70.86,5.004c-36.224,0-65.704,29.483-65.704,65.705c0,36.239,29.48,65.718,65.704,65.718
		c36.239,0,65.717-29.479,65.717-65.718C136.577,34.487,107.099,5.004,70.86,5.004L70.86,5.004z M87.209,73.022h-10.69v38.118
		H60.677V73.022h-7.535V59.559h7.535v-8.713c0-6.231,2.959-15.986,15.986-15.986l11.733,0.052v13.066H79.88
		c-1.396,0-3.361,0.7-3.361,3.668v7.927H88.59L87.209,73.022z M87.209,73.022"/>
</g>
</svg>
