<?xml version="1.0" encoding="utf-8"?>
<!-- Generator: Adobe Illustrator 16.0.0, SVG Export Plug-In . SVG Version: 6.00 Build 0)  -->
<!DOCTYPE svg PUBLIC "-//W3C//DTD SVG 1.1//EN" "http://www.w3.org/Graphics/SVG/1.1/DTD/svg11.dtd">
<svg version="1.1" id="Capa_1" xmlns="http://www.w3.org/2000/svg" xmlns:xlink="http://www.w3.org/1999/xlink" x="0px" y="0px"
	 width="141.732px" height="141.732px" viewBox="0 0 141.732 141.732" enable-background="new 0 0 141.732 141.732"
	 xml:space="preserve">
<g>
	<path d="M70.859,83.866c7.25,0,13.157-5.892,13.157-13.155c0-2.858-0.933-5.505-2.482-7.664c-2.392-3.307-6.281-5.479-10.675-5.479
		c-4.38,0-8.272,2.156-10.661,5.479c-1.563,2.159-2.481,4.806-2.493,7.664C57.705,77.975,63.611,83.866,70.859,83.866L70.859,83.866
		z M70.859,83.866"/>
	<path d="M99.588,54.619V41.956h-1.653l-11.023,0.038l0.05,12.666L99.588,54.619z M99.588,54.619"/>
	<path d="M70.859,5.005c-36.224,0-65.704,29.483-65.704,65.706c0,36.237,29.48,65.717,65.704,65.717
		c36.239,0,65.718-29.479,65.718-65.717C136.577,34.488,107.099,5.005,70.859,5.005L70.859,5.005z M108.234,63.047v30.603
		c0,7.968-6.475,14.443-14.449,14.443H47.935c-7.964,0-14.438-6.476-14.438-14.443V47.797c0-7.974,6.475-14.448,14.438-14.448
		h45.851c7.975,0,14.449,6.474,14.449,14.448V63.047z M108.234,63.047"/>
	<path d="M91.304,70.711c0,11.268-9.162,20.444-20.444,20.444c-11.269,0-20.429-9.177-20.429-20.444c0-2.701,0.542-5.3,1.496-7.664
		H40.775v30.603c0,3.955,3.202,7.153,7.159,7.153h45.851c3.956,0,7.161-3.198,7.161-7.153V63.047H89.794
		C90.748,65.411,91.304,68.01,91.304,70.711L91.304,70.711z M91.304,70.711"/>
</g>
</svg>
