<?xml version="1.0" encoding="utf-8"?>
<!-- Generator: Adobe Illustrator 16.0.0, SVG Export Plug-In . SVG Version: 6.00 Build 0)  -->
<!DOCTYPE svg PUBLIC "-//W3C//DTD SVG 1.1//EN" "http://www.w3.org/Graphics/SVG/1.1/DTD/svg11.dtd">
<svg version="1.1" id="Capa_1" xmlns="http://www.w3.org/2000/svg" xmlns:xlink="http://www.w3.org/1999/xlink" x="0px" y="0px"
	 width="141.732px" height="141.732px" viewBox="0 0 141.732 141.732" enable-background="new 0 0 141.732 141.732"
	 xml:space="preserve">
<g>
	<path d="M70.86,5.004c-36.224,0-65.704,29.482-65.704,65.706c0,36.237,29.48,65.716,65.704,65.716
		c36.239,0,65.717-29.479,65.717-65.716C136.577,34.486,107.099,5.004,70.86,5.004L70.86,5.004z M100.185,55.678
		c0.024,0.647,0.038,1.307,0.038,1.968c0,19.983-15.213,43.02-43.036,43.02c-8.542,0-16.49-2.487-23.185-6.797
		c1.189,0.142,2.391,0.22,3.606,0.22c7.095,0,13.609-2.418,18.792-6.475c-6.617-0.131-12.2-4.498-14.126-10.508
		c0.918,0.181,1.86,0.272,2.843,0.272c1.37,0,2.715-0.182,3.981-0.53c-6.915-1.384-12.135-7.493-12.135-14.824
		c0-0.063,0-0.126,0.013-0.194c2.028,1.138,4.368,1.81,6.85,1.887c-4.059-2.699-6.734-7.341-6.734-12.588
		c0-2.766,0.75-5.359,2.042-7.599c7.457,9.153,18.61,15.173,31.172,15.807c-0.258-1.111-0.387-2.26-0.387-3.451
		c0-8.348,6.77-15.12,15.12-15.12c4.354,0,8.284,1.837,11.036,4.768c3.451-0.671,6.693-1.926,9.616-3.67
		c-1.138,3.542-3.528,6.5-6.657,8.374c3.063-0.361,5.985-1.176,8.685-2.374C105.702,50.887,103.13,53.546,100.185,55.678
		L100.185,55.678z M100.185,55.678"/>
</g>
</svg>
